<?xml version="1.0" standalone="no"?>
<!DOCTYPE svg PUBLIC "-//W3C//DTD SVG 20010904//EN"
 "http://www.w3.org/TR/2001/REC-SVG-20010904/DTD/svg10.dtd">
<svg version="1.0" xmlns="http://www.w3.org/2000/svg"
 width="854.000000pt" height="854.000000pt" viewBox="0 0 854.000000 854.000000"
 preserveAspectRatio="xMidYMid meet">
<metadata>
Created by potrace 1.14, written by Peter Selinger 2001-2017
</metadata>
<g transform="translate(0.000000,854.000000) scale(0.100000,-0.100000)"
fill="#000000" stroke="none">
<path d="M6090 8521 c-169 -65 -413 -324 -503 -533 -35 -82 -73 -165 -185
-398 -27 -58 -73 -154 -102 -215 -29 -60 -78 -164 -110 -230 -74 -153 -159
-332 -220 -460 -26 -55 -77 -161 -113 -235 -97 -201 -184 -384 -232 -485 -47
-100 -133 -278 -250 -520 -42 -88 -94 -196 -115 -240 -21 -44 -70 -147 -110
-230 -40 -82 -94 -196 -121 -252 -26 -55 -57 -107 -67 -115 -11 -7 -27 -41
-38 -78 -30 -111 -236 -535 -287 -593 -33 -38 -55 -76 -95 -167 -45 -105 -41
-113 76 -186 6 -4 -15 -40 -126 -219 -58 -93 -109 -172 -114 -173 -4 -2 -8 -8
-8 -12 0 -5 -25 -49 -55 -97 -30 -48 -64 -104 -75 -123 -11 -19 -29 -50 -40
-68 -11 -18 -18 -38 -14 -43 6 -10 5 -276 -1 -374 -2 -27 -6 -104 -10 -170 -7
-129 -14 -217 -18 -221 -1 -2 -19 1 -40 5 -119 27 -495 -27 -617 -89 -298
-151 -325 -170 -358 -255 -42 -111 -27 -169 65 -256 85 -80 159 -119 262 -139
26 -5 57 -12 71 -15 14 -2 36 -7 50 -10 14 -3 48 -8 75 -11 149 -18 289 -29
520 -40 77 -3 158 -7 180 -9 22 -2 96 -6 165 -9 216 -10 335 -18 341 -22 4 -2
31 -6 60 -8 51 -5 92 -10 164 -21 17 -2 56 -7 88 -10 32 -4 68 -8 80 -11 12
-2 42 -7 67 -10 25 -3 56 -7 70 -10 14 -2 43 -6 65 -9 42 -5 70 -10 118 -21
16 -3 38 -7 50 -9 33 -5 97 -16 121 -22 11 -2 39 -9 62 -13 189 -40 403 -129
420 -175 4 -8 -10 -29 -33 -50 -38 -36 -246 -185 -338 -243 -75 -47 -235 -128
-280 -142 -48 -15 -113 -49 -139 -72 -47 -43 -101 -72 -181 -99 -48 -16 -108
-41 -134 -57 -25 -15 -71 -36 -101 -46 -30 -11 -68 -28 -85 -38 -54 -33 -150
-78 -165 -78 -22 0 -107 -32 -165 -63 l-50 -26 93 -1 c71 0 104 5 140 20 26
10 128 50 227 88 99 38 189 72 200 77 11 4 25 9 30 11 15 4 345 139 377 154
15 7 25 17 22 21 -2 4 12 11 33 15 81 15 353 140 479 220 66 41 85 57 150 121
69 68 104 121 108 166 5 48 -25 130 -60 165 -37 38 -130 97 -201 128 -105 47
-335 116 -458 138 -16 3 -39 8 -50 10 -124 27 -185 39 -210 43 -29 4 -51 8
-97 18 -22 4 -142 24 -183 30 -11 1 -58 8 -105 15 -47 7 -99 14 -115 15 -17 1
-48 5 -70 9 -22 3 -65 8 -95 10 -168 13 -225 17 -325 22 -60 2 -139 7 -175 9
-36 2 -105 7 -155 10 -94 6 -122 9 -220 19 -77 8 -134 15 -165 21 -14 3 -41 7
-60 10 -19 3 -48 8 -65 12 -16 4 -32 7 -35 8 -21 3 -107 29 -115 35 -5 4 -36
17 -68 30 l-58 23 33 22 c96 64 425 171 618 200 41 6 140 34 163 46 12 6 34
23 49 36 23 22 25 29 17 51 -6 15 -16 30 -22 34 -8 6 1 19 28 44 22 20 71 63
109 97 38 34 81 73 96 87 76 70 230 200 298 252 36 27 48 46 69 103 13 39 26
77 28 85 2 8 11 35 20 60 29 78 156 444 160 460 4 16 38 112 42 119 1 2 20 -4
43 -13 51 -20 94 -21 110 -1 41 49 110 197 116 248 6 46 11 59 141 327 52 107
110 216 129 242 20 26 46 80 58 120 13 40 92 213 176 383 85 171 154 312 154
315 1 3 30 64 65 135 35 72 106 218 159 325 52 107 143 294 202 415 59 121
151 310 205 420 53 110 137 281 185 380 48 99 125 257 170 350 45 94 145 296
222 450 139 279 158 325 198 482 70 281 31 499 -104 570 -43 22 -133 24 -186
4z"/>
</g>
</svg>
